# xmcd CD database file
# Copyright (C) 1993-1996 Ti Kan
#
# Track frame offsets:
# 150
# 13120
# 26740
# 40855
# 53615
# 63082
# 72975
# 85852
# 101385
# 113050
#
# Disc length: 1670 seconds
#
# Revision: 1
# Processed by: cddbd v1.4PL0 Copyright (c) Steve Scherf et al.
# Submitted via: Gronk 1.4
#
DISCID=7606840a
DTITLE=Merle Haggard - Greatest Hits Volume 1
DYEAR=1900
DGENRE=country
TTITLE0=Swinging Doors
TTITLE1=I'm a Lonsome Fugitive
TTITLE2=Branded Man
TTITLE3=Sing Me Back Home
TTITLE4=The Legend of Bonnie and Clyde
TTITLE5=Mama Tried
TTITLE6=I Take a Lot of Pride In What I Am
TTITLE7=Hungry Eyes
TTITLE8=Workin' Man Blues
TTITLE9=Okie From Muskogee
EXTD=
EXTT0=
EXTT1=
EXTT2=
EXTT3=
EXTT4=
EXTT5=
EXTT6=
EXTT7=
EXTT8=
EXTT9=
PLAYORDER=
